<svg id="Layer_1" enable-background="new 0 0 64 64" height="512" viewBox="0 0 64 64" width="512" xmlns="http://www.w3.org/2000/svg"><g><g><path d="m49.724 47.25h-35.448l17.724-31.016zm-32-2h28.553l-14.277-24.984z" fill="#55525b"/></g><g><circle cx="15.5" cy="46.25" fill="#55525b" r="14.5"/></g><g><circle cx="32" cy="17.75" fill="#55525b" r="14.5"/></g><g><circle cx="48.5" cy="46.25" fill="#55525b" r="14.5"/></g><g><g><path d="m38.817 16.75c-.04-1.774-.185-3.554-.443-5.25h6.695c-.335-.698-.714-1.369-1.152-2h-5.911c-.489-2.257-1.201-4.25-2.148-5.715-1.23-.339-2.52-.535-3.858-.535 1.647 0 3.1 2.476 3.972 6.25h-7.944c.872-3.774 2.325-6.25 3.972-6.25-1.338 0-2.628.196-3.858.535-.947 1.465-1.659 3.458-2.148 5.715h-5.911c-.438.631-.817 1.302-1.152 2h6.695c-.258 1.696-.403 3.476-.443 5.25h-7.633c-.023.332-.051.662-.051 1s.028.668.051 1h7.633c.04 1.774.185 3.554.443 5.25h-6.695c.335.698.714 1.369 1.152 2h5.911c.489 2.257 1.201 4.25 2.148 5.715 1.23.339 2.52.535 3.858.535-1.647 0-3.1-2.476-3.972-6.25h7.944c-.872 3.774-2.325 6.25-3.972 6.25 1.338 0 2.628-.196 3.858-.535.947-1.465 1.659-3.458 2.148-5.715h5.911c.438-.631.817-1.302 1.152-2h-6.695c.258-1.696.403-3.476.443-5.25h7.633c.023-.332.051-.662.051-1s-.028-.668-.051-1zm-11.173-5.25h8.712c.257 1.609.418 3.379.46 5.25h-9.633c.043-1.871.204-3.641.461-5.25zm8.712 12.5h-8.712c-.257-1.609-.418-3.379-.46-5.25h9.633c-.043 1.871-.204 3.641-.461 5.25z" fill="#6fa4d8"/></g></g><g><g><path d="m16 38.25c-3.314 0-6 2.686-6 6v12h6.5v-2h3.5c1.105 0 2-.895 2-2v-8c0-3.314-2.686-6-6-6z" fill="#eec78e"/><g><path d="m20.75 50.25c-.69 0-1.25-.56-1.25-1.25v-2.75c1.381 0 2.5 1.119 2.5 2.5v.25c0 .69-.56 1.25-1.25 1.25z" fill="#db9e68"/></g><g><circle cx="18" cy="45.75" fill="#55525b" r=".5"/></g><g><circle cx="21" cy="45.75" fill="#55525b" r=".5"/></g><g><path d="m16.5 56.25h-6.5c0-1.105.895-2 2-2h4.5z" fill="#db9e68"/></g><g><path d="m21 51.25h-3c0 .552.448 1 1 1h1c.552 0 1-.448 1-1z" fill="#55525b"/></g></g><g><path d="m21 36.25h-7c-3.314 0-6 2.686-6 6v8c0 1.105.895 2 2 2h2c1.105 0 2-.895 2-2v-3h.5c.828 0 1.5-.672 1.5-1.5v-2c0-.828.672-1.5 1.5-1.5h3.5c1.657 0 3-1.343 3-3 0-1.657-1.343-3-3-3z" fill="#fbbe18"/></g><g><path d="m14 46.25c-1.105 0-2 .895-2 2s.895 2 2 2z" fill="#db9e68"/></g><g><path d="m10 59.663c1.697.697 3.552 1.087 5.5 1.087 2.338 0 4.539-.566 6.495-1.549-.027-1.634-1.355-2.951-2.995-2.951h-9z" fill="#f68820"/></g><g><path d="m10 56.25c-1.265 0-2.341.785-2.783 1.892 1.698 1.185 3.661 2.008 5.783 2.378v-1.27c0-1.657-1.343-3-3-3z" fill="#fbbe18"/></g></g><g><path d="m53.5 45.75c0-2.869-2.416-5.173-5.324-4.99-2.469.155-4.484 2.15-4.663 4.617-.107 1.472.424 2.82 1.345 3.798 1.083 1.15 1.642 2.698 1.642 4.278v.297h4v-.311c0-1.618.645-3.15 1.725-4.355.793-.884 1.275-2.053 1.275-3.334z" fill="#fbbe18"/></g><g><path d="m49 56.75h-1c-.828 0-1.5-.672-1.5-1.5v-1.5h4v1.5c0 .828-.672 1.5-1.5 1.5z" fill="#b3b4b6"/></g><g><path d="m47.027 40.973c-1.567.487-2.818 1.735-3.305 3.304.392.868 1.263 1.474 2.278 1.474 1.381 0 2.5-1.119 2.5-2.5 0-1.015-.605-1.886-1.473-2.278z" fill="#fbd301"/></g><g><path d="m48.5 53.75h-2v1.5c0 .828.672 1.5 1.5 1.5h.5z" fill="#dbdee3"/></g><g><g><path d="m48.5 39.25c-.553 0-1-.448-1-1v-2c0-.552.447-1 1-1s1 .448 1 1v2c0 .552-.447 1-1 1z" fill="#fbbe18"/></g><g><path d="m41.571 43.25c-.17 0-.342-.043-.499-.134l-1.732-1c-.479-.276-.643-.888-.366-1.366.276-.479.889-.643 1.366-.366l1.732 1c.479.276.643.888.366 1.366-.185.321-.521.5-.867.5z" fill="#fbbe18"/></g><g><path d="m39.841 52.25c-.346 0-.682-.179-.867-.5-.276-.479-.112-1.09.366-1.366l1.732-1c.476-.277 1.089-.113 1.366.366.276.479.112 1.09-.366 1.366l-1.732 1c-.157.091-.329.134-.499.134z" fill="#fbbe18"/></g><g><path d="m57.159 52.25c-.17 0-.342-.043-.499-.134l-1.732-1c-.479-.276-.643-.888-.366-1.366.276-.479.888-.643 1.366-.366l1.732 1c.479.276.643.888.366 1.366-.185.321-.521.5-.867.5z" fill="#fbbe18"/></g><g><path d="m55.429 43.25c-.346 0-.682-.179-.867-.5-.276-.479-.112-1.09.366-1.366l1.732-1c.477-.276 1.09-.113 1.366.366s.112 1.09-.366 1.366l-1.732 1c-.157.091-.329.134-.499.134z" fill="#fbbe18"/></g></g></g></svg>